# xmcd
#
# Track frame offsets: 
#        150
#        5062
#        29775
#        36462
#        42865
#        64272
#        72613
#        101661
#        121639
#        126616
#        150522
#        179901
#        198614
#        221740
#        235767
#
# Disc length: 3460 seconds
#
# Revision: 1
# Processed by: cddbd v1.5.2PL0 Copyright (c) Steve Scherf et al.
# Submitted via: ExactAudioCopy v0.99pb5
#
DISCID=ed0d820f
DTITLE=Henri Texier Nord-Sud Quintet - Canto Negro
DYEAR=2011
DGENRE=Jazz
TTITLE0=Anda Companeros
TTITLE1=Tango Fangoso
TTITLE2=Bayou Brume
TTITLE3=Tierra Ocre
TTITLE4=Louisiana Dark Waters
TTITLE5=Tormentoso
TTITLE6=Muccho Calor
TTITLE7=Sombre Jeudi
TTITLE8=Rouge Bayou
TTITLE9=De Nada
TTITLE10=Samba Loca
TTITLE11=Nigerian Sad Waters
TTITLE12=Ravine Gabouldin
TTITLE13=Manatee Blues
TTITLE14=Sueno Canto
EXTD=YEAR: 2010
EXTT0=
EXTT1=
EXTT2=
EXTT3=
EXTT4=
EXTT5=
EXTT6=
EXTT7=
EXTT8=
EXTT9=
EXTT10=
EXTT11=
EXTT12=
EXTT13=
EXTT14=
PLAYORDER=
